<?xml version="1.0" standalone="no"?>
<!DOCTYPE svg PUBLIC "-//W3C//DTD SVG 20010904//EN"
 "http://www.w3.org/TR/2001/REC-SVG-20010904/DTD/svg10.dtd">
<svg version="1.0" xmlns="http://www.w3.org/2000/svg"
 width="300.000000pt" height="144.000000pt" viewBox="0 0 300.000000 144.000000"
 preserveAspectRatio="xMidYMid meet">
<metadata>
Created by potrace 1.10, written by Peter Selinger 2001-2011
</metadata>
<g transform="translate(0.000000,144.000000) scale(0.100000,-0.100000)"
fill="#000000" stroke="none">
<path d="M31 1374 c-11 -15 -18 -31 -14 -37 4 -6 11 -3 20 8 11 16 13 7 13
-68 0 -71 3 -87 15 -87 12 0 15 18 15 105 0 115 -9 130 -49 79z"/>
<path d="M193 1388 c-16 -21 -22 -44 -13 -58 10 -16 31 -4 24 14 -3 7 2 19 11
26 12 10 18 10 30 0 24 -20 18 -44 -25 -98 -56 -70 -54 -82 15 -82 44 0 55 3
55 16 0 13 -8 15 -40 12 -22 -2 -40 -1 -40 2 0 4 12 17 26 31 31 28 54 70 54
97 0 41 -73 71 -97 40z"/>
<path d="M392 1388 c-16 -16 -16 -71 1 -65 6 2 11 11 9 19 -3 20 24 42 43 34
22 -8 19 -44 -5 -58 -11 -7 -20 -16 -20 -20 0 -4 9 -10 20 -13 36 -11 22 -75
-16 -75 -3 0 -9 11 -14 25 -12 31 -30 33 -30 2 0 -30 18 -47 50 -47 47 0 80
66 50 96 -8 8 -7 19 1 37 19 42 -1 77 -44 77 -18 0 -38 -5 -45 -12z"/>
<path d="M638 1378 c-23 -35 -58 -106 -58 -118 0 -5 18 -10 41 -10 38 0 40 -1
37 -27 -2 -20 2 -28 12 -28 8 0 15 9 15 20 0 11 4 26 9 34 5 8 4 16 -2 20 -7
4 -10 32 -9 66 2 48 -1 60 -14 63 -9 1 -23 -7 -31 -20z m22 -63 c0 -42 -2 -45
-26 -45 -14 0 -24 3 -22 8 19 38 42 82 45 82 2 0 3 -20 3 -45z"/>
<path d="M794 1386 c-3 -8 -4 -29 -2 -48 3 -29 7 -34 38 -38 29 -4 36 -9 38
-33 4 -33 -13 -58 -34 -50 -8 3 -14 16 -14 30 0 30 -24 26 -28 -4 -7 -46 59
-71 91 -35 38 42 11 122 -41 122 -17 0 -22 6 -22 25 0 24 2 25 40 19 33 -5 40
-4 40 10 0 21 -98 24 -106 2z"/>
<path d="M1020 1368 c-47 -77 -30 -178 30 -178 55 0 81 79 39 121 -12 12 -29
19 -40 16 -23 -6 -24 1 -4 30 9 13 22 20 30 17 9 -4 15 0 15 10 0 30 -48 19
-70 -16z m48 -70 c17 -17 15 -63 -4 -79 -14 -11 -18 -10 -30 6 -17 23 -18 72
-1 78 19 8 22 8 35 -5z"/>
<path d="M1193 1388 c2 -8 19 -12 41 -11 20 1 36 1 36 0 0 -1 -11 -29 -25 -62
-28 -69 -33 -125 -10 -125 10 0 15 10 15 29 0 17 11 61 25 99 14 38 25 72 25
76 0 3 -25 6 -56 6 -40 0 -54 -3 -51 -12z"/>
<path d="M1402 1388 c-14 -14 -16 -64 -3 -72 5 -4 3 -19 -5 -36 -22 -43 -1
-84 44 -88 18 -2 40 2 48 9 16 13 19 80 3 96 -8 8 -7 16 2 31 21 34 -2 72 -44
72 -18 0 -38 -5 -45 -12z m63 -38 c0 -29 -32 -41 -41 -16 -9 24 4 48 23 44 12
-2 18 -12 18 -28z m5 -80 c13 -24 -2 -60 -25 -60 -23 0 -38 36 -25 60 6 11 17
20 25 20 8 0 19 -9 25 -20z"/>
<path d="M1611 1387 c-6 -8 -14 -28 -17 -45 -8 -39 31 -84 65 -75 20 5 21 4
10 -21 -12 -25 -20 -30 -46 -27 -7 1 -13 -5 -13 -14 0 -26 50 -14 73 17 27 37
35 120 13 153 -18 28 -66 34 -85 12z m57 -19 c7 -7 12 -27 12 -45 0 -28 -3
-33 -25 -33 -29 0 -43 36 -25 69 12 24 21 26 38 9z"/>
<path d="M1810 1381 c-5 -11 -10 -51 -10 -90 0 -76 13 -101 55 -101 42 0 55
25 55 101 0 89 -10 109 -55 109 -24 0 -38 -6 -45 -19z m73 -38 c20 -68 -13
-157 -46 -124 -12 12 -15 130 -3 149 13 22 40 8 49 -25z"/>
<path d="M31 1014 c-11 -15 -18 -31 -14 -37 4 -6 11 -3 20 8 11 16 13 7 13
-68 0 -71 3 -87 15 -87 12 0 15 18 15 105 0 115 -9 130 -49 79z"/>
<path d="M117 1022 c-10 -10 -17 -27 -17 -38 1 -18 1 -18 14 -1 7 9 15 17 17
17 2 0 3 -38 1 -85 -3 -72 -1 -85 12 -85 14 0 16 16 16 105 0 111 -8 126 -43
87z"/>
<path d="M266 1018 c-24 -34 -21 -56 4 -33 19 17 19 16 13 -69 -5 -76 -4 -86
11 -86 14 0 16 14 16 105 0 85 -3 105 -14 105 -8 0 -22 -10 -30 -22z"/>
<path d="M350 1026 c-13 -17 -10 -63 5 -56 5 3 9 10 7 16 -4 17 23 35 42 28
27 -10 18 -49 -24 -102 -56 -70 -54 -82 15 -82 42 0 55 3 55 15 0 11 -11 15
-41 15 l-42 0 42 45 c46 50 54 91 23 118 -23 21 -65 22 -82 3z"/>
<path d="M544 1015 c-19 -30 -9 -55 12 -28 13 16 14 8 9 -69 -6 -76 -5 -88 9
-88 14 0 16 16 16 105 0 86 -3 105 -15 105 -8 0 -22 -11 -31 -25z"/>
<path d="M631 1026 c-14 -17 -11 -64 4 -56 5 3 9 10 7 16 -3 17 25 37 43 30
22 -8 19 -44 -5 -58 -11 -7 -20 -16 -20 -19 0 -4 9 -9 20 -12 25 -6 28 -62 4
-71 -21 -8 -34 1 -34 25 0 10 -7 19 -15 19 -18 0 -20 -41 -3 -58 17 -17 64
-15 82 4 18 17 21 65 6 80 -6 6 -6 21 2 42 9 24 10 37 2 50 -14 22 -77 28 -93
8z"/>
<path d="M834 1015 c-19 -30 -9 -55 13 -28 13 16 14 8 8 -69 -5 -76 -4 -88 9
-88 14 0 16 17 16 105 0 86 -3 105 -15 105 -8 0 -22 -11 -31 -25z"/>
<path d="M937 977 c-20 -35 -37 -69 -37 -75 0 -7 16 -12 40 -12 38 0 40 -2 40
-31 0 -20 4 -29 12 -27 17 6 24 51 20 136 -5 95 -23 97 -75 9z m43 -22 c0 -41
-2 -45 -25 -45 l-25 0 22 45 c12 25 23 45 25 45 2 0 3 -20 3 -45z"/>
<path d="M1121 1016 c-14 -15 -20 -30 -16 -37 6 -9 12 -7 22 6 11 16 13 7 13
-69 0 -126 20 -108 25 22 4 112 -2 123 -44 78z"/>
<path d="M1194 1015 c-3 -14 -3 -36 0 -50 5 -20 12 -25 40 -25 26 0 35 -5 40
-22 8 -32 8 -35 -9 -52 -21 -21 -45 -9 -45 21 0 28 -23 27 -28 -1 -8 -38 50
-70 85 -48 20 13 31 55 22 86 -10 34 -24 46 -56 46 -18 0 -23 6 -23 25 0 24 2
25 40 19 33 -5 40 -4 40 10 0 13 -10 16 -50 16 -45 0 -50 -3 -56 -25z"/>
<path d="M1404 1015 c-19 -30 -9 -55 13 -28 13 16 14 8 8 -69 -5 -76 -4 -88 9
-88 14 0 16 17 16 105 0 86 -3 105 -15 105 -8 0 -22 -11 -31 -25z"/>
<path d="M1504 1014 c-26 -39 -31 -139 -9 -164 39 -43 95 -10 95 56 0 37 -31
69 -60 61 -11 -3 -20 -2 -20 2 0 15 32 51 44 49 6 -2 13 2 14 7 1 6 -8 11 -22
13 -18 2 -30 -4 -42 -24z m56 -114 c0 -31 -20 -53 -37 -42 -6 4 -15 20 -19 36
-5 22 -3 32 11 42 24 18 45 1 45 -36z"/>
<path d="M1691 1014 c-11 -15 -18 -31 -14 -37 4 -6 11 -3 20 8 11 16 13 7 13
-68 0 -71 3 -87 15 -87 12 0 15 18 15 105 0 115 -9 130 -49 79z"/>
<path d="M1755 1031 c-9 -15 13 -23 45 -16 17 4 30 5 30 2 0 -3 -11 -35 -25
-71 -29 -76 -32 -116 -10 -116 9 0 15 9 15 25 0 14 9 51 21 83 38 104 39 102
-19 102 -28 0 -53 -4 -57 -9z"/>
<path d="M1956 1015 c-20 -31 -10 -58 11 -29 13 17 14 9 12 -65 -3 -60 0 -86
9 -89 9 -3 12 20 14 82 1 47 2 94 2 103 1 28 -29 26 -48 -2z"/>
<path d="M2040 1021 c-14 -27 -13 -46 5 -61 14 -12 14 -15 0 -30 -20 -22 -19
-64 1 -85 25 -25 75 -16 94 18 14 25 13 30 -2 57 -10 17 -13 32 -7 35 13 9 11
59 -3 73 -20 20 -76 15 -88 -7z m65 -31 c0 -16 -6 -26 -18 -28 -19 -4 -32 20
-23 44 9 25 41 13 41 -16z m11 -86 c8 -31 -14 -58 -39 -48 -17 6 -24 54 -10
67 16 16 43 6 49 -19z"/>
<path d="M2247 1015 c-10 -14 -15 -30 -11 -37 5 -7 12 -5 21 8 13 17 14 9 11
-66 -2 -63 1 -85 10 -85 9 0 13 27 15 100 2 82 -1 100 -13 102 -8 2 -23 -9
-33 -22z"/>
<path d="M2337 1022 c-26 -29 -22 -88 7 -107 13 -8 31 -13 40 -9 20 8 21 -5 0
-34 -9 -13 -22 -21 -30 -18 -17 6 -28 -10 -14 -19 23 -14 61 6 76 40 19 47 18
129 -2 149 -21 21 -57 20 -77 -2z m61 -50 c3 -40 2 -43 -20 -40 -17 2 -24 11
-26 31 -5 39 5 59 25 55 13 -2 19 -15 21 -46z"/>
<path d="M2534 1015 c-16 -25 -13 -55 6 -55 5 0 10 11 10 24 0 29 28 42 48 22
12 -12 13 -20 3 -45 -7 -16 -22 -38 -33 -48 -11 -10 -26 -30 -34 -46 -13 -24
-13 -28 0 -33 25 -10 99 1 104 15 3 10 -5 12 -37 9 -22 -2 -41 -2 -41 0 0 2
16 22 35 45 37 43 48 100 23 125 -21 21 -66 14 -84 -13z"/>
<path d="M2666 1018 c-22 -31 -21 -136 0 -166 12 -17 24 -22 47 -20 27 3 34 9
45 43 15 44 10 128 -9 151 -18 22 -66 17 -83 -8z m68 -20 c9 -35 7 -94 -4
-122 -11 -29 -35 -34 -44 -10 -8 21 -8 139 1 147 14 15 41 6 47 -15z"/>
<path d="M31 654 c-11 -15 -18 -31 -14 -37 4 -6 11 -3 20 8 11 16 13 7 13 -68
0 -71 3 -87 15 -87 12 0 15 18 15 105 0 115 -9 130 -49 79z"/>
<path d="M119 664 c-18 -22 -23 -133 -7 -164 11 -19 21 -25 48 -25 27 0 37 6
47 25 18 36 16 131 -3 158 -18 26 -65 30 -85 6z m65 -20 c12 -33 6 -131 -9
-144 -27 -23 -45 5 -45 70 0 71 7 90 30 90 10 0 21 -7 24 -16z"/>
<path d="M325 664 c-18 -18 -17 -55 3 -62 7 -2 12 6 12 22 0 31 23 44 45 26
20 -17 19 -26 -7 -50 l-22 -20 22 -16 c25 -17 29 -46 8 -63 -18 -15 -46 -3
-46 20 0 23 -18 25 -27 4 -8 -23 26 -55 58 -55 17 0 34 8 43 22 20 29 20 47
-1 70 -13 14 -14 21 -5 30 16 16 15 61 0 76 -17 17 -64 15 -83 -4z"/>
<path d="M460 661 c-5 -11 -10 -50 -10 -86 0 -81 11 -105 49 -105 45 0 61 27
61 104 0 86 -10 106 -55 106 -24 0 -38 -6 -45 -19z m71 -46 c4 -22 4 -58 0
-80 -12 -77 -61 -46 -61 40 0 86 48 117 61 40z"/>
<path d="M708 658 c-23 -35 -58 -106 -58 -118 0 -5 18 -10 40 -10 38 0 41 -2
38 -26 -2 -15 3 -29 10 -31 7 -3 12 4 12 19 0 13 6 30 12 36 10 10 10 14 0 21
-9 6 -12 26 -10 67 2 47 0 59 -13 62 -9 1 -23 -7 -31 -20z m22 -63 c0 -41 -2
-45 -25 -45 -14 0 -25 2 -25 5 0 10 40 85 45 85 3 0 5 -20 5 -45z"/>
<path d="M799 664 c-17 -20 -17 -141 -1 -171 17 -31 65 -31 86 -1 18 26 22
138 6 169 -13 24 -72 26 -91 3z m69 -69 c4 -72 -3 -105 -23 -105 -21 0 -35 33
-35 85 0 55 15 87 38 83 13 -2 18 -16 20 -63z"/>
<path d="M1000 631 l0 -50 38 -3 c33 -3 37 -6 40 -34 4 -38 -20 -63 -43 -44
-8 7 -15 21 -15 31 0 23 -18 25 -26 4 -10 -26 23 -65 55 -65 38 0 56 23 56 72
0 44 -22 68 -63 68 -19 0 -23 5 -20 23 2 18 9 22 38 22 57 0 51 20 -7 23 l-53
3 0 -50z"/>
<path d="M1140 661 c-5 -11 -10 -50 -10 -86 0 -82 11 -105 50 -105 47 0 60 22
60 101 0 89 -10 109 -55 109 -24 0 -38 -6 -45 -19z m72 -45 c12 -57 -2 -121
-27 -121 -24 0 -38 46 -31 103 7 53 13 64 34 60 10 -2 19 -19 24 -42z"/>
<path d="M1364 655 c-25 -39 -36 -103 -24 -140 24 -72 110 -52 110 25 0 39
-28 73 -56 67 -28 -5 -30 1 -9 30 9 13 22 20 30 17 9 -4 15 0 15 10 0 26 -47
20 -66 -9z m44 -77 c16 -16 15 -63 -2 -77 -11 -9 -18 -8 -30 4 -19 19 -21 71
-3 78 19 8 22 8 35 -5z"/>
<path d="M1480 661 c-5 -11 -10 -50 -10 -86 0 -81 11 -105 49 -105 45 0 61 27
61 104 0 86 -10 106 -55 106 -24 0 -38 -6 -45 -19z m71 -46 c4 -22 4 -58 0
-80 -12 -77 -61 -46 -61 40 0 86 48 117 61 40z"/>
<path d="M1665 671 c-9 -16 13 -23 47 -16 35 8 35 14 -2 -92 -22 -62 -21 -98
3 -90 6 2 11 13 9 24 -1 11 11 56 27 101 l30 82 -54 0 c-29 0 -56 -4 -60 -9z"/>
<path d="M1800 661 c-17 -32 -13 -157 6 -175 20 -20 58 -20 78 0 22 21 25 156
4 182 -17 20 -76 15 -88 -7z m73 -38 c20 -67 -13 -157 -45 -125 -12 12 -14
133 -3 151 12 21 39 7 48 -26z"/>
<path d="M2012 668 c-15 -15 -15 -43 -2 -68 7 -13 7 -21 0 -25 -5 -3 -10 -24
-10 -45 0 -29 5 -42 19 -50 26 -14 64 -13 79 2 14 14 16 84 2 93 -6 3 -5 15 2
30 18 40 -3 75 -45 75 -18 0 -38 -5 -45 -12z m63 -38 c0 -16 -6 -26 -18 -28
-19 -4 -32 20 -23 44 9 25 41 13 41 -16z m9 -82 c13 -21 -2 -51 -27 -56 -23
-5 -40 33 -27 59 13 23 38 22 54 -3z"/>
<path d="M2149 663 c-19 -22 -18 -155 0 -177 20 -24 67 -20 85 6 18 26 22 122
6 162 -8 21 -16 26 -44 26 -19 0 -39 -7 -47 -17z m69 -68 c4 -72 -3 -105 -23
-105 -21 0 -35 33 -35 85 0 55 15 87 38 83 13 -2 18 -16 20 -63z"/>
<path d="M2356 658 c-34 -48 -2 -128 45 -113 23 8 24 -3 4 -32 -9 -13 -22 -20
-30 -17 -9 4 -15 0 -15 -10 0 -30 48 -19 70 17 22 35 27 125 10 158 -15 27
-64 25 -84 -3z m64 -19 c18 -33 9 -64 -20 -64 -20 0 -26 6 -28 28 -3 27 12 57
29 57 5 0 13 -9 19 -21z"/>
<path d="M2489 664 c-18 -22 -23 -133 -7 -164 11 -19 21 -25 48 -25 27 0 37 6
47 25 18 36 16 131 -3 158 -18 26 -65 30 -85 6z m65 -20 c12 -33 6 -131 -9
-144 -27 -23 -45 5 -45 70 0 71 7 90 30 90 10 0 21 -7 24 -16z"/>
<path d="M2696 658 c-10 -14 -16 -44 -16 -83 0 -73 18 -105 60 -105 20 0 33 7
41 21 15 28 14 156 -1 174 -19 23 -66 19 -84 -7z m68 -20 c9 -36 7 -107 -4
-129 -13 -23 -36 -25 -44 -3 -8 21 -8 139 1 147 14 15 41 6 47 -15z"/>
<path d="M2830 661 c-5 -11 -10 -50 -10 -86 0 -82 11 -105 50 -105 42 0 60 32
60 108 0 82 -11 102 -55 102 -24 0 -38 -6 -45 -19z m68 -66 c4 -72 -4 -105
-23 -105 -20 0 -35 40 -35 91 0 50 16 81 38 77 13 -2 18 -16 20 -63z"/>
<path d="M51 294 c-38 -48 -38 -153 1 -177 43 -27 97 30 82 87 -7 29 -37 51
-60 42 -8 -3 -14 0 -14 6 0 19 31 47 46 41 8 -3 14 1 14 11 0 26 -46 19 -69
-10z m59 -107 c0 -13 -6 -32 -14 -42 -12 -16 -16 -17 -30 -6 -19 16 -22 77 -3
84 21 7 47 -13 47 -36z"/>
<path d="M296 298 c-19 -27 -20 -48 -4 -83 10 -23 24 -30 56 -26 6 1 12 -4 12
-10 0 -20 -31 -48 -46 -42 -9 3 -14 -1 -14 -12 0 -25 49 -15 72 15 24 33 33
117 16 150 -19 35 -70 40 -92 8z m64 -19 c18 -33 9 -64 -20 -64 -20 0 -26 6
-28 28 -3 27 12 57 29 57 5 0 13 -9 19 -21z"/>
<path d="M156 135 c-3 -9 1 -18 10 -22 19 -7 28 2 21 22 -8 19 -23 19 -31 0z"/>
<path d="M416 135 c-3 -9 1 -18 10 -22 19 -7 28 2 21 22 -8 19 -23 19 -31 0z"/>
<path d="M540 100 c0 -6 27 -10 60 -10 33 0 60 4 60 10 0 6 -27 10 -60 10 -33
0 -60 -4 -60 -10z"/>
</g>
</svg>
